<svg width="260" height="220" viewBox="0 0 260 220" fill="none" xmlns="http://www.w3.org/2000/svg" role="img" aria-labelledby="voltiqueLogoTitle">
  <title id="voltiqueLogoTitle">Voltique electrical provider matching logo</title>

  <defs>
    <filter id="softDepth" x="-20" y="-20" width="320" height="280" filterUnits="userSpaceOnUse">
      <feDropShadow dx="0" dy="5" stdDeviation="4" flood-color="#050505" flood-opacity="0.18"/>
    </filter>
  </defs>

  <g filter="url(#softDepth)">
    <path
      d="M116 48C132 31 157 24 181 30C219 40 242 78 232 116C223 151 190 174 155 170"
      stroke="#050505"
      stroke-width="11"
      stroke-linecap="round"
    />

    <path
      d="M155 170L171 154"
      stroke="#050505"
      stroke-width="11"
      stroke-linecap="round"
    />

    <path
      d="M155 170L171 186"
      stroke="#050505"
      stroke-width="11"
      stroke-linecap="round"
    />

    <g transform="translate(156 105)">
      <rect x="-10" y="-54" width="20" height="24" rx="4" fill="#5D8E3A" stroke="#050505" stroke-width="6"/>
      <rect x="-10" y="30" width="20" height="24" rx="4" fill="#5D8E3A" stroke="#050505" stroke-width="6"/>
      <rect x="-54" y="-10" width="24" height="20" rx="4" fill="#5D8E3A" stroke="#050505" stroke-width="6"/>
      <rect x="30" y="-10" width="24" height="20" rx="4" fill="#5D8E3A" stroke="#050505" stroke-width="6"/>

      <rect x="-10" y="-54" width="20" height="24" rx="4" fill="#5D8E3A" stroke="#050505" stroke-width="6" transform="rotate(45)"/>
      <rect x="-10" y="-54" width="20" height="24" rx="4" fill="#5D8E3A" stroke="#050505" stroke-width="6" transform="rotate(135)"/>
      <rect x="-10" y="-54" width="20" height="24" rx="4" fill="#5D8E3A" stroke="#050505" stroke-width="6" transform="rotate(225)"/>
      <rect x="-10" y="-54" width="20" height="24" rx="4" fill="#5D8E3A" stroke="#050505" stroke-width="6" transform="rotate(315)"/>

      <circle cx="0" cy="0" r="42" fill="#5D8E3A" stroke="#050505" stroke-width="8"/>
      <circle cx="0" cy="0" r="18" fill="#F7F7F2" stroke="#050505" stroke-width="6"/>
    </g>

    <path
      d="M82 48L24 136H80L58 198L142 93H95L118 48H82Z"
      fill="#F6F77E"
      stroke="#050505"
      stroke-width="9"
      stroke-linejoin="round"
    />

    <path
      d="M82 48L24 136H80"
      stroke="#E5E85F"
      stroke-width="4"
      stroke-linecap="round"
      stroke-linejoin="round"
      opacity="0.8"
    />
  </g>
</svg>